<svg width="21" height="20" viewBox="0 0 21 20" fill="none" xmlns="http://www.w3.org/2000/svg">
<path fill-rule="evenodd" clip-rule="evenodd" d="M20.5 10C20.5 15.5228 16.0228 20 10.5 20C4.97715 20 0.5 15.5228 0.5 10C0.5 4.47715 4.97715 0 10.5 0C16.0228 0 20.5 4.47715 20.5 10ZM14.2071 6.29289C14.5976 6.68342 14.5976 7.31658 14.2071 7.70711L11.9142 10L14.2071 12.2929C14.5976 12.6834 14.5976 13.3166 14.2071 13.7071C13.8166 14.0976 13.1834 14.0976 12.7929 13.7071L10.5 11.4142L8.20711 13.7071C7.81658 14.0976 7.18342 14.0976 6.79289 13.7071C6.40237 13.3166 6.40237 12.6834 6.79289 12.2929L9.08579 10L6.79289 7.70711C6.40237 7.31658 6.40237 6.68342 6.79289 6.29289C7.18342 5.90237 7.81658 5.90237 8.20711 6.29289L10.5 8.58579L12.7929 6.29289C13.1834 5.90237 13.8166 5.90237 14.2071 6.29289Z" fill="#7F8A94"/>
</svg>
